<?xml version="1.0" standalone="no"?>
<!DOCTYPE svg PUBLIC "-//W3C//DTD SVG 20010904//EN"
 "http://www.w3.org/TR/2001/REC-SVG-20010904/DTD/svg10.dtd">
<svg version="1.0" xmlns="http://www.w3.org/2000/svg"
 width="776.000000pt" height="776.000000pt" viewBox="0 0 776.000000 776.000000"
 preserveAspectRatio="xMidYMid meet">
<metadata>
Created by potrace 1.14, written by Peter Selinger 2001-2017
</metadata>
<g transform="translate(0.000000,776.000000) scale(0.100000,-0.100000)"
fill="#000000" stroke="none">
<path d="M3035 6335 c41 -79 91 -173 110 -207 19 -35 52 -97 72 -138 21 -41
40 -77 43 -80 5 -5 6 -7 108 -200 36 -69 81 -152 99 -185 18 -33 50 -94 70
-135 21 -41 40 -77 43 -80 3 -3 23 -39 44 -80 22 -41 62 -115 89 -165 26 -49
51 -98 54 -107 3 -10 9 -18 14 -18 5 0 9 -7 9 -15 0 -8 9 -29 20 -47 l19 -32
-66 -125 c-36 -70 -69 -130 -73 -136 -4 -5 -36 -64 -70 -130 -35 -66 -87 -164
-116 -217 -30 -54 -82 -151 -116 -215 -34 -65 -72 -136 -84 -158 -13 -22 -36
-67 -54 -100 -17 -33 -53 -100 -80 -150 -28 -49 -61 -112 -75 -140 -14 -27
-50 -95 -80 -150 -30 -55 -54 -102 -55 -105 0 -6 1379 -4 1384 1 9 12 73 128
168 309 28 52 58 109 68 125 9 17 44 80 76 140 32 61 72 137 90 170 18 33 46
87 64 120 17 33 53 101 80 150 27 50 64 119 82 155 18 36 35 67 38 70 5 5 17
28 101 190 19 36 36 67 39 70 3 3 19 32 36 65 l32 60 -42 80 c-23 44 -50 95
-59 112 -10 18 -16 35 -15 37 2 2 -4 12 -12 22 -9 11 -25 37 -37 59 -31 59
-101 191 -138 260 -18 33 -51 96 -75 140 -23 44 -46 84 -51 90 -5 5 -9 17 -9
26 0 10 -3 19 -7 21 -5 2 -17 21 -29 43 -52 99 -131 247 -170 317 -23 43 -46
87 -49 98 -3 11 -11 20 -16 20 -5 0 -9 8 -9 18 0 10 -4 22 -9 28 -9 9 -39 63
-106 192 l-39 72 -693 0 -694 0 76 -145z"/>
<path d="M1754 4840 c-9 -3 -37 -46 -63 -95 -27 -50 -65 -121 -86 -160 -21
-38 -55 -104 -78 -145 -22 -41 -52 -97 -67 -125 -15 -27 -49 -90 -75 -140 -26
-49 -62 -117 -80 -150 -42 -77 -97 -181 -148 -275 -21 -41 -58 -109 -80 -150
-22 -41 -52 -97 -67 -125 -15 -27 -53 -99 -85 -160 -32 -60 -71 -132 -87 -158
-15 -26 -28 -51 -28 -54 0 -3 -29 -58 -64 -122 -71 -130 -124 -228 -186 -346
-24 -44 -59 -109 -78 -145 -19 -36 -50 -94 -69 -130 -19 -36 -52 -96 -73 -135
-20 -38 -59 -110 -84 -159 -26 -49 -60 -112 -75 -140 -16 -28 -44 -80 -63
-116 -56 -106 -61 -114 -70 -130 -5 -8 -14 -27 -21 -42 -6 -16 -15 -28 -19
-28 -4 0 -8 -5 -8 -10 0 -7 234 -9 696 -8 l695 3 38 70 c20 39 59 111 85 160
27 50 67 124 89 165 22 41 54 100 69 130 16 30 44 83 62 116 118 220 234 438
260 489 17 33 33 62 36 65 3 3 18 30 33 60 15 30 52 100 82 155 30 55 65 120
77 145 13 25 25 47 28 50 6 6 20 31 176 325 51 97 94 177 144 270 21 39 55
104 77 145 21 41 40 77 43 80 3 3 25 43 49 90 24 47 61 116 82 153 22 38 39
71 39 73 0 2 24 48 53 101 30 54 75 139 102 188 26 50 63 118 82 153 23 41 30
62 21 63 -47 4 -1352 3 -1364 -1z"/>
<path d="M3100 2853 c0 -7 -9 -61 -41 -233 -12 -66 -15 -82 -24 -135 -3 -22
-8 -47 -10 -55 -3 -8 -7 -33 -10 -55 -4 -22 -8 -51 -11 -65 -12 -64 -33 -178
-39 -210 -3 -19 -26 -147 -51 -284 -25 -136 -43 -251 -40 -254 9 -8 255 -6
263 2 4 4 8 17 10 29 2 12 9 56 17 97 8 41 18 98 22 125 9 55 10 64 14 68 1 1
4 21 6 45 10 91 -1 86 195 88 96 1 191 4 211 7 206 31 339 144 386 327 5 19
10 73 11 120 2 98 -16 172 -57 230 -32 45 -129 111 -192 130 -25 7 -52 16 -60
18 -28 9 -600 14 -600 5z m587 -249 c102 -75 79 -278 -38 -340 -43 -22 -77
-26 -233 -30 l-148 -4 7 48 c11 71 22 129 29 167 1 6 8 44 15 85 7 41 15 81
17 88 3 11 37 13 163 10 142 -3 163 -5 188 -24z"/>
<path d="M4317 2853 c-3 -5 -8 -30 -12 -58 -5 -27 -9 -54 -11 -60 -1 -5 -5
-28 -8 -50 -4 -23 -9 -52 -12 -65 -3 -14 -7 -34 -9 -45 -16 -92 -36 -203 -40
-215 -3 -8 -7 -29 -9 -45 -3 -27 -18 -112 -31 -175 -3 -14 -8 -38 -10 -55 -3
-16 -12 -66 -20 -110 -8 -44 -16 -91 -19 -105 -5 -30 -24 -135 -31 -170 -19
-97 -24 -134 -20 -138 3 -3 210 -5 461 -5 l455 0 -6 -46 c-3 -25 -8 -55 -10
-66 -7 -31 -15 -76 -20 -122 l-6 -43 119 0 120 0 17 98 c10 53 19 108 22 122
2 14 11 61 19 105 8 44 17 98 21 120 3 22 6 44 7 49 0 5 -21 9 -49 10 -38 1
-50 5 -48 16 1 8 7 42 13 75 6 33 13 71 16 85 2 14 9 48 14 75 5 28 12 66 15
85 3 19 8 46 10 60 3 14 7 36 10 50 3 14 10 50 16 80 5 30 12 71 15 90 2 19 7
42 9 50 3 8 7 33 10 55 4 22 9 49 12 60 4 11 8 31 9 45 1 14 5 39 8 55 4 17
11 57 17 90 6 33 13 70 16 83 l5 23 -138 -3 -138 -3 -7 -40 c-4 -22 -10 -53
-13 -70 -3 -16 -8 -43 -11 -60 -3 -16 -14 -77 -25 -135 -11 -58 -22 -121 -25
-140 -3 -19 -8 -42 -10 -50 -2 -8 -6 -31 -9 -50 -3 -19 -8 -46 -11 -60 -3 -14
-7 -38 -10 -55 -3 -16 -8 -43 -11 -58 -3 -16 -7 -38 -9 -50 -2 -12 -8 -47 -13
-77 -6 -30 -13 -71 -16 -90 -4 -19 -11 -58 -17 -86 l-11 -50 -252 2 c-279 2
-269 1 -263 12 5 6 15 59 22 109 2 12 6 34 9 50 4 15 9 42 12 58 7 42 35 196
40 220 3 11 7 36 10 55 3 19 7 41 9 48 3 7 7 34 11 60 3 26 8 50 10 54 2 3 7
28 10 55 3 26 9 64 14 83 5 19 12 51 15 70 13 81 27 156 32 178 5 22 5 22
-130 22 -75 0 -138 -3 -140 -7z"/>
<path d="M5625 2773 c-9 -49 -18 -97 -19 -108 -3 -18 -19 -104 -31 -165 -3
-13 -7 -42 -11 -64 -3 -22 -7 -43 -10 -47 -2 -3 -6 -25 -9 -47 -2 -23 -10 -63
-16 -89 -6 -26 -12 -59 -14 -73 -3 -21 -28 -157 -41 -225 -2 -11 -11 -56 -19
-100 -8 -44 -16 -90 -19 -101 -2 -12 -7 -39 -11 -60 -6 -42 -12 -76 -19 -111
-3 -14 0 -23 7 -24 40 -3 268 -1 270 2 131 169 254 327 262 336 19 23 31 38
53 70 13 18 32 42 42 55 11 13 81 102 156 198 204 263 193 252 173 175 -5 -22
-12 -51 -15 -65 -11 -53 -46 -213 -50 -229 -2 -9 -15 -67 -29 -130 -14 -62
-27 -116 -29 -120 -2 -3 -7 -23 -10 -43 -5 -33 -14 -73 -32 -153 -3 -11 -7
-31 -10 -45 -2 -14 -7 -31 -9 -37 -3 -8 6 -13 23 -14 77 -3 243 -1 247 2 2 3
7 27 10 54 4 28 9 53 11 56 2 4 6 24 10 45 5 37 24 138 59 319 8 44 17 94 19
110 3 26 16 100 30 170 4 19 64 348 72 390 1 11 6 34 9 50 3 17 8 47 11 68 l7
37 -143 0 c-156 0 -144 4 -197 -66 -51 -68 -159 -214 -173 -234 -8 -13 -20
-28 -25 -34 -6 -6 -34 -42 -63 -81 -28 -38 -61 -81 -72 -95 -11 -14 -35 -46
-52 -72 -17 -27 -35 -48 -40 -48 -4 0 -8 -6 -8 -14 0 -8 -4 -16 -8 -18 -7 -3
-38 -43 -126 -162 -21 -30 -42 -35 -31 -8 4 9 9 28 11 42 3 14 12 63 20 110 8
47 26 141 39 210 14 69 27 137 29 153 3 15 7 35 10 45 3 9 7 33 10 52 3 19 8
46 11 60 13 63 25 135 25 147 0 10 -30 13 -134 13 l-134 0 -17 -87z"/>
<path d="M6835 2848 c-2 -7 -6 -24 -9 -38 -2 -14 -7 -41 -10 -60 -3 -19 -8
-47 -10 -62 -3 -15 -7 -32 -10 -37 -9 -15 11 -17 182 -16 89 1 162 1 162 0 0
-2 -19 -106 -25 -140 -3 -16 -10 -55 -15 -85 -6 -30 -12 -66 -15 -80 -3 -14
-9 -50 -15 -80 -6 -30 -12 -66 -15 -80 -3 -14 -7 -38 -10 -55 -2 -16 -6 -40
-9 -51 -2 -12 -7 -37 -10 -55 -3 -19 -8 -45 -11 -59 -4 -14 -8 -38 -10 -55 -2
-16 -10 -64 -19 -105 -8 -41 -17 -88 -20 -105 -2 -16 -9 -52 -14 -78 l-10 -48
92 0 c50 0 100 1 111 1 11 0 30 0 42 0 20 0 41 22 41 43 0 6 14 94 17 107 0 3
5 28 10 55 5 28 9 52 10 55 1 3 5 25 9 50 12 65 13 71 21 120 4 25 9 54 11 65
2 11 6 31 9 45 3 14 7 36 10 50 3 14 8 40 11 59 3 18 8 43 10 55 2 11 7 35 10
51 2 17 7 41 9 55 3 14 7 36 10 50 2 13 12 64 20 113 9 49 17 93 20 97 2 4 68
7 146 6 77 -1 146 2 152 6 10 6 45 156 46 200 1 16 -31 17 -459 18 -363 0
-461 -2 -465 -12z"/>
</g>
</svg>
